<svg xmlns="http://www.w3.org/2000/svg" viewBox="0 0 680 200">
  <rect width="680" height="200" fill="#0f172a"/>

  <!-- Labels -->
  <text font-family="monospace" font-size="11" fill="#94a3b8" text-anchor="middle" y="195">16px</text>
  <text font-family="monospace" font-size="11" fill="#94a3b8" text-anchor="middle" x="68"  y="195">28px</text>
  <text font-family="monospace" font-size="11" fill="#94a3b8" text-anchor="middle" x="130" y="195">32px</text>
  <text font-family="monospace" font-size="11" fill="#94a3b8" text-anchor="middle" x="200" y="195">40px</text>
  <text font-family="monospace" font-size="11" fill="#94a3b8" text-anchor="middle" x="292" y="195">56px</text>
  <text font-family="monospace" font-size="11" fill="#94a3b8" text-anchor="middle" x="440" y="195">96px</text>

  <defs>
    <linearGradient id="g1" x1="0%" y1="0%" x2="100%" y2="100%">
      <stop offset="0%" stop-color="#7c3aed"/>
      <stop offset="100%" stop-color="#16a34a"/>
    </linearGradient>
  </defs>

  <!-- 16px -->
  <g transform="translate(8,166)">
    <rect width="16" height="16" rx="3.5" fill="url(#g1)"/>
    <path d="M2.5 4 L3.5 12 L8 6 L12.5 12 L13.5 4" stroke="white" stroke-width="1.2" stroke-linecap="round" stroke-linejoin="round" fill="none"/>
    <circle cx="2.5" cy="4" r="1.1" fill="white"/>
    <circle cx="13.5" cy="4" r="1.1" fill="white"/>
    <circle cx="8" cy="6" r="1.1" fill="white"/>
  </g>

  <!-- 28px -->
  <g transform="translate(54,154)">
    <rect width="28" height="28" rx="6" fill="url(#g1)"/>
    <path d="M4.4 7 L8.75 21 L14 9.6 L19.25 21 L23.6 7" stroke="white" stroke-width="1.9" stroke-linecap="round" stroke-linejoin="round" fill="none"/>
    <circle cx="4.4" cy="7" r="1.9" fill="white"/>
    <circle cx="23.6" cy="7" r="1.9" fill="white"/>
    <circle cx="14" cy="9.6" r="1.9" fill="white"/>
  </g>

  <!-- 32px -->
  <g transform="translate(114,150)">
    <rect width="32" height="32" rx="7" fill="url(#g1)"/>
    <path d="M5 8 L10 26 L16 15 L22 26 L27 8" stroke="white" stroke-width="2.2" stroke-linecap="round" stroke-linejoin="round" fill="none"/>
    <circle cx="5" cy="8" r="2.2" fill="white"/>
    <circle cx="27" cy="8" r="2.2" fill="white"/>
    <circle cx="16" cy="15" r="2.2" fill="white"/>
  </g>

  <!-- 40px -->
  <g transform="translate(180,142)">
    <rect width="40" height="40" rx="9" fill="url(#g1)"/>
    <path d="M6.3 10 L12.5 32.5 L20 18.7 L27.5 32.5 L33.7 10" stroke="white" stroke-width="2.7" stroke-linecap="round" stroke-linejoin="round" fill="none"/>
    <circle cx="6.3" cy="10" r="2.7" fill="white"/>
    <circle cx="33.7" cy="10" r="2.7" fill="white"/>
    <circle cx="20" cy="18.7" r="2.7" fill="white"/>
  </g>

  <!-- 56px -->
  <g transform="translate(264,126)">
    <rect width="56" height="56" rx="12" fill="url(#g1)"/>
    <path d="M8.75 14 L17.5 45.5 L28 26.1 L38.5 45.5 L47.25 14" stroke="white" stroke-width="3.8" stroke-linecap="round" stroke-linejoin="round" fill="none"/>
    <circle cx="8.75" cy="14" r="3.8" fill="white"/>
    <circle cx="47.25" cy="14" r="3.8" fill="white"/>
    <circle cx="28" cy="26.1" r="3.8" fill="white"/>
  </g>

  <!-- 96px -->
  <g transform="translate(392,86)">
    <rect width="96" height="96" rx="21" fill="url(#g1)"/>
    <path d="M15 24 L30 78 L48 44.8 L66 78 L81 24" stroke="white" stroke-width="6.5" stroke-linecap="round" stroke-linejoin="round" fill="none"/>
    <circle cx="15" cy="24" r="6.5" fill="white"/>
    <circle cx="81" cy="24" r="6.5" fill="white"/>
    <circle cx="48" cy="44.8" r="6.5" fill="white"/>
  </g>
</svg>
